# xmcd
#
# Track frame offsets:
# 150
# 13598
# 27662
# 40324
# 59381
# 72262
# 88659
# 102959
# 117445
# 131219
# 147051
# 164301
# 178406
# 194053
# 207389
# 221395
#
# Disc length: 3140 seconds
#
#
# Revision: 0
# Processed by: cddbd v1.5.1PL0 Copyright (c) Steve Scherf et al.
# Submitted via: FreeRIP 2.93 
#
DISCID=f90c4210
DTITLE=Rod Stewart - As time goes by... The great American songbook Volume 2
DYEAR=2003
DGENRE=
TTITLE0=Time after time
TTITLE1=I'm in the mood for love
TTITLE2=Don't get around much anymore
TTITLE3=Bewitched, bothered and bewildered (with Cher)
TTITLE4='Till there was you
TTITLE5=Until the real thing comes along
TTITLE6=Where or when
TTITLE7=Smile
TTITLE8=My heart stood still
TTITLE9=Someone to watch over me
TTITLE10=As time goes by (with Queen Latifah)
TTITLE11=I only have eyes for you
TTITLE12=Crazy she calls me
TTITLE13=Our love is here to stay
TTITLE14=I only have eyes for you (with Ana Belén. Spanish/English)
TTITLE15=I only have eyes for you (with Ana Belén)
EXTD=
EXTT0=
EXTT1=
EXTT2=
EXTT3=
EXTT4=
EXTT5=
EXTT6=
EXTT7=
EXTT8=
EXTT9=
EXTT10=
EXTT11=
EXTT12=
EXTT13=
EXTT14=
EXTT15=
PLAYORDER=
